REM DIRINDEX 1\2,1\3,1\4
REM DIRNAME folder01,folder02,folder03,folder04
TITLE ""
FILE "Track06.mp3" MP3
  TRACK 01 AUDIO
    TITLE "0:"
    INDEX 01 00:00:00
  TRACK 02 AUDIO
    TITLE "4:cjc153_0254"
    INDEX 01 00:00:05
  TRACK 03 AUDIO
    TITLE "0:"
    INDEX 01 00:01:56
  TRACK 04 AUDIO
    TITLE "2:cjc153_0255"
    INDEX 01 00:02:34
  TRACK 05 AUDIO
    TITLE "0:"
    INDEX 01 00:03:53
  TRACK 06 AUDIO
    TITLE "3:cjc153_0256"
    INDEX 01 00:04:03
  TRACK 07 AUDIO
    TITLE "0:"
    INDEX 01 00:05:26
  TRACK 08 AUDIO
    TITLE "2:cjc153_0257"
    INDEX 01 00:05:65
  TRACK 09 AUDIO
    TITLE "0:"
    INDEX 01 00:07:03
  TRACK 10 AUDIO
    TITLE "3:cjc153_0258"
    INDEX 01 00:07:33
  TRACK 11 AUDIO
    TITLE "0:"
    INDEX 01 00:08:48
  TRACK 12 AUDIO
    TITLE "2:cjc153_0259"
    INDEX 01 00:09:18
  TRACK 13 AUDIO
    TITLE "0:"
    INDEX 01 00:10:21
  TRACK 14 AUDIO
    TITLE "3:cjc153_0260"
    INDEX 01 00:10:45
  TRACK 15 AUDIO
    TITLE "0:"
    INDEX 01 00:11:50
  TRACK 16 AUDIO
    TITLE "2:cjc153_0261"
    INDEX 01 00:12:12
  TRACK 17 AUDIO
    TITLE "0:"
    INDEX 01 00:13:14
  TRACK 18 AUDIO
    TITLE "3:cjc153_0262"
    INDEX 01 00:13:41
  TRACK 19 AUDIO
    TITLE "0:"
    INDEX 01 00:14:45
  TRACK 20 AUDIO
    TITLE "2:cjc153_0263"
    INDEX 01 00:15:09
  TRACK 21 AUDIO
    TITLE "0:"
    INDEX 01 00:16:12
  TRACK 22 AUDIO
    TITLE "3:cjc153_0264"
    INDEX 01 00:16:51
  TRACK 23 AUDIO
    TITLE "0:"
    INDEX 01 00:17:53
  TRACK 24 AUDIO
    TITLE "2:cjc153_0265"
    INDEX 01 00:18:21
  TRACK 25 AUDIO
    TITLE "0:"
    INDEX 01 00:19:20
  TRACK 26 AUDIO
    TITLE "3:cjc153_0266"
    INDEX 01 00:19:46
  TRACK 27 AUDIO
    TITLE "0:"
    INDEX 01 00:20:47
  TRACK 28 AUDIO
    TITLE "2:cjc153_0267"
    INDEX 01 00:21:11
  TRACK 29 AUDIO
    TITLE "0:"
    INDEX 01 00:22:11
  TRACK 30 AUDIO
    TITLE "3:cjc153_0268"
    INDEX 01 00:22:36
  TRACK 31 AUDIO
    TITLE "0:"
    INDEX 01 00:23:38
  TRACK 32 AUDIO
    TITLE "2:cjc153_0269"
    INDEX 01 00:24:00
  TRACK 33 AUDIO
    TITLE "0:"
    INDEX 01 00:25:09
  TRACK 34 AUDIO
    TITLE "3:cjc153_0270"
    INDEX 01 00:25:35
  TRACK 35 AUDIO
    TITLE "0:"
    INDEX 01 00:26:48
  TRACK 36 AUDIO
    TITLE "2:cjc153_0271"
    INDEX 01 00:27:10
  TRACK 37 AUDIO
    TITLE "0:"
    INDEX 01 00:28:23
  TRACK 38 AUDIO
    TITLE "3:cjc153_0272"
    INDEX 01 00:28:49
  TRACK 39 AUDIO
    TITLE "0:"
    INDEX 01 00:29:62
  TRACK 40 AUDIO
    TITLE "2:cjc153_0273"
    INDEX 01 00:30:26
  TRACK 41 AUDIO
    TITLE "0:"
    INDEX 01 00:31:20
  TRACK 42 AUDIO
    TITLE "3:cjc153_0274"
    INDEX 01 00:31:45
  TRACK 43 AUDIO
    TITLE "0:"
    INDEX 01 00:32:39
  TRACK 44 AUDIO
    TITLE "2:cjc153_0275"
    INDEX 01 00:33:01
  TRACK 45 AUDIO
    TITLE "0:"
    INDEX 01 00:34:14
  TRACK 46 AUDIO
    TITLE "3:cjc153_0276"
    INDEX 01 00:34:53
  TRACK 47 AUDIO
    TITLE "0:"
    INDEX 01 00:35:72
  TRACK 48 AUDIO
    TITLE "2:cjc153_0277"
    INDEX 01 00:36:46
  TRACK 49 AUDIO
    TITLE "0:"
    INDEX 01 00:37:71
  TRACK 50 AUDIO
    TITLE "3:cjc153_0278"
    INDEX 01 00:38:20
  TRACK 51 AUDIO
    TITLE "0:"
    INDEX 01 00:39:51
  TRACK 52 AUDIO
    TITLE "2:cjc153_0279"
    INDEX 01 00:40:13
  TRACK 53 AUDIO
    TITLE "0:"
    INDEX 01 00:41:14
  TRACK 54 AUDIO
    TITLE "3:cjc153_0280"
    INDEX 01 00:41:38
  TRACK 55 AUDIO
    TITLE "0:"
    INDEX 01 00:42:41
  TRACK 56 AUDIO
    TITLE "2:cjc153_0281"
    INDEX 01 00:43:03
  TRACK 57 AUDIO
    TITLE "0:"
    INDEX 01 00:44:05
  TRACK 58 AUDIO
    TITLE "3:cjc153_0282"
    INDEX 01 00:44:30
  TRACK 59 AUDIO
    TITLE "0:"
    INDEX 01 00:45:35
  TRACK 60 AUDIO
    TITLE "2:cjc153_0283"
    INDEX 01 00:45:73
  TRACK 61 AUDIO
    TITLE "0:"
    INDEX 01 00:47:03
  TRACK 62 AUDIO
    TITLE "3:cjc153_0284"
    INDEX 01 00:47:28
  TRACK 63 AUDIO
    TITLE "0:"
    INDEX 01 00:48:36
  TRACK 64 AUDIO
    TITLE "2:cjc153_0285"
    INDEX 01 00:48:73
  TRACK 65 AUDIO
    TITLE "0:"
    INDEX 01 00:49:53
  TRACK 66 AUDIO
    TITLE "3:cjc153_0286"
    INDEX 01 00:50:31
  TRACK 67 AUDIO
    TITLE "0:"
    INDEX 01 00:51:11
  TRACK 68 AUDIO
    TITLE "2:cjc153_0287"
    INDEX 01 00:52:00
  TRACK 69 AUDIO
    TITLE "0:"
    INDEX 01 00:52:71
  TRACK 70 AUDIO
    TITLE "3:cjc153_0288"
    INDEX 01 00:53:21
  TRACK 71 AUDIO
    TITLE "0:"
    INDEX 01 00:54:17
  TRACK 72 AUDIO
    TITLE "2:cjc153_0289"
    INDEX 01 00:54:56
  TRACK 73 AUDIO
    TITLE "0:"
    INDEX 01 00:55:59
  TRACK 74 AUDIO
    TITLE "3:cjc153_0290"
    INDEX 01 00:56:08
  TRACK 75 AUDIO
    TITLE "0:"
    INDEX 01 00:57:11
  TRACK 76 AUDIO
    TITLE "2:cjc153_0291"
    INDEX 01 00:57:45
  TRACK 77 AUDIO
    TITLE "0:"
    INDEX 01 00:58:44
  TRACK 78 AUDIO
    TITLE "3:cjc153_0292"
    INDEX 01 00:58:71
  TRACK 79 AUDIO
    TITLE "0:"
    INDEX 01 00:59:71
  TRACK 80 AUDIO
    TITLE "2:cjc153_0293"
    INDEX 01 01:00:33
  TRACK 81 AUDIO
    TITLE "0:"
    INDEX 01 01:01:50
  TRACK 82 AUDIO
    TITLE "3:cjc153_0294"
    INDEX 01 01:02:03
  TRACK 83 AUDIO
    TITLE "0:"
    INDEX 01 01:03:26
  TRACK 84 AUDIO
    TITLE "2:cjc153_0295"
    INDEX 01 01:03:63
  TRACK 85 AUDIO
    TITLE "0:"
    INDEX 01 01:04:54
  TRACK 86 AUDIO
    TITLE "3:cjc153_0296"
    INDEX 01 01:05:03
  TRACK 87 AUDIO
    TITLE "0:"
    INDEX 01 01:05:71
  TRACK 88 AUDIO
    TITLE "2:cjc153_0297"
    INDEX 01 01:06:38
  TRACK 89 AUDIO
    TITLE "0:"
    INDEX 01 01:07:33
  TRACK 90 AUDIO
    TITLE "3:cjc153_0298"
    INDEX 01 01:07:59
  TRACK 91 AUDIO
    TITLE "0:"
    INDEX 01 01:08:60
  TRACK 92 AUDIO
    TITLE "2:cjc153_0299"
    INDEX 01 01:09:22
  TRACK 93 AUDIO
    TITLE "0:"
    INDEX 01 01:10:24
  TRACK 94 AUDIO
    TITLE "3:cjc153_0300"
    INDEX 01 01:10:49
  TRACK 95 AUDIO
    TITLE "0:"
    INDEX 01 01:11:51
  TRACK 96 AUDIO
    TITLE "2:cjc153_0301"
    INDEX 01 01:12:13
  TRACK 97 AUDIO
    TITLE "0:"
    INDEX 01 01:13:14
  TRACK 98 AUDIO
    TITLE "3:cjc153_0302"
    INDEX 01 01:13:42
  TRACK 99 AUDIO
    TITLE "0:"
    INDEX 01 01:14:47
  TRACK 100 AUDIO
    TITLE "2:cjc153_0303"
    INDEX 01 01:15:11
  TRACK 101 AUDIO
    TITLE "0:"
    INDEX 01 01:16:20
  TRACK 102 AUDIO
    TITLE "3:cjc153_0304"
    INDEX 01 01:16:46
  TRACK 103 AUDIO
    TITLE "0:"
    INDEX 01 01:17:59
  TRACK 104 AUDIO
    TITLE "2:cjc153_0305"
    INDEX 01 01:18:19
  TRACK 105 AUDIO
    TITLE "0:"
    INDEX 01 01:19:17
  TRACK 106 AUDIO
    TITLE "3:cjc153_0306"
    INDEX 01 01:19:40
  TRACK 107 AUDIO
    TITLE "0:"
    INDEX 01 01:20:44
  TRACK 108 AUDIO
    TITLE "2:cjc153_0307"
    INDEX 01 01:21:08
  TRACK 109 AUDIO
    TITLE "0:"
    INDEX 01 01:22:15
  TRACK 110 AUDIO
    TITLE "3:cjc153_0308"
    INDEX 01 01:22:46
  TRACK 111 AUDIO
    TITLE "0:"
    INDEX 01 01:23:56
  TRACK 112 AUDIO
    TITLE "2:cjc153_0309"
    INDEX 01 01:24:36
  TRACK 113 AUDIO
    TITLE "0:"
    INDEX 01 01:25:33
  TRACK 114 AUDIO
    TITLE "3:cjc153_0310"
    INDEX 01 01:25:58
  TRACK 115 AUDIO
    TITLE "0:"
    INDEX 01 01:26:56
  TRACK 116 AUDIO
    TITLE "2:cjc153_0311"
    INDEX 01 01:27:20
  TRACK 117 AUDIO
    TITLE "0:"
    INDEX 01 01:28:18
  TRACK 118 AUDIO
    TITLE "3:cjc153_0312"
    INDEX 01 01:28:43
  TRACK 119 AUDIO
    TITLE "0:"
    INDEX 01 01:29:46
  TRACK 120 AUDIO
    TITLE "2:cjc153_0313"
    INDEX 01 01:30:05
  TRACK 121 AUDIO
    TITLE "0:"
    INDEX 01 01:31:00
  TRACK 122 AUDIO
    TITLE "3:cjc153_0314"
    INDEX 01 01:31:24
  TRACK 123 AUDIO
    TITLE "0:"
    INDEX 01 01:32:23
  TRACK 124 AUDIO
    TITLE "2:cjc153_0315"
    INDEX 01 01:32:59
  TRACK 125 AUDIO
    TITLE "0:"
    INDEX 01 01:33:74
  TRACK 126 AUDIO
    TITLE "3:cjc153_0316"
    INDEX 01 01:34:22
  TRACK 127 AUDIO
    TITLE "0:"
    INDEX 01 01:35:47
  TRACK 128 AUDIO
    TITLE "2:cjc153_0317"
    INDEX 01 01:36:11
  TRACK 129 AUDIO
    TITLE "0:"
    INDEX 01 01:37:17
  TRACK 130 AUDIO
    TITLE "3:cjc153_0318"
    INDEX 01 01:37:46
  TRACK 131 AUDIO
    TITLE "0:"
    INDEX 01 01:38:57
  TRACK 132 AUDIO
    TITLE "2:cjc153_0319"
    INDEX 01 01:39:19
  TRACK 133 AUDIO
    TITLE "0:"
    INDEX 01 01:40:17
  TRACK 134 AUDIO
    TITLE "3:cjc153_0320"
    INDEX 01 01:40:40
  TRACK 135 AUDIO
    TITLE "0:"
    INDEX 01 01:41:38
  TRACK 136 AUDIO
    TITLE "2:cjc153_0321"
    INDEX 01 01:42:00
  TRACK 137 AUDIO
    TITLE "0:"
    INDEX 01 01:43:00
  TRACK 138 AUDIO
    TITLE "3:cjc153_0322"
    INDEX 01 01:43:25
  TRACK 139 AUDIO
    TITLE "0:"
    INDEX 01 01:44:26
  TRACK 140 AUDIO
    TITLE "2:cjc153_0323"
    INDEX 01 01:44:64
  TRACK 141 AUDIO
    TITLE "0:"
    INDEX 01 01:45:59
  TRACK 142 AUDIO
    TITLE "3:cjc153_0324"
    INDEX 01 01:46:10
  TRACK 143 AUDIO
    TITLE "0:"
    INDEX 01 01:47:11
  TRACK 144 AUDIO
    TITLE "2:cjc153_0325"
    INDEX 01 01:47:50
  TRACK 145 AUDIO
    TITLE "0:"
    INDEX 01 01:48:61
  TRACK 146 AUDIO
    TITLE "3:cjc153_0326"
    INDEX 01 01:49:16
  TRACK 147 AUDIO
    TITLE "0:"
    INDEX 01 01:50:33
  TRACK 148 AUDIO
    TITLE "2:cjc153_0327"
    INDEX 01 01:51:01
  TRACK 149 AUDIO
    TITLE "0:"
    INDEX 01 01:52:06
  TRACK 150 AUDIO
    TITLE "3:cjc153_0328"
    INDEX 01 01:52:34
  TRACK 151 AUDIO
    TITLE "0:"
    INDEX 01 01:53:39
  TRACK 152 AUDIO
    TITLE "2:cjc153_0329"
    INDEX 01 01:54:03
  TRACK 153 AUDIO
    TITLE "0:"
    INDEX 01 01:54:62
  TRACK 154 AUDIO
    TITLE "3:cjc153_0330"
    INDEX 01 01:55:36
  TRACK 155 AUDIO
    TITLE "0:"
    INDEX 01 01:56:24
  TRACK 156 AUDIO
    TITLE "2:cjc153_0331"
    INDEX 01 01:57:00
  TRACK 157 AUDIO
    TITLE "0:"
    INDEX 01 01:58:21
  TRACK 158 AUDIO
    TITLE "3:cjc153_0332"
    INDEX 01 01:58:48
  TRACK 159 AUDIO
    TITLE "0:"
    INDEX 01 01:59:71
  TRACK 160 AUDIO
    TITLE "2:cjc153_0333"
    INDEX 01 02:00:35
  TRACK 161 AUDIO
    TITLE "0:"
    INDEX 01 02:01:50
  TRACK 162 AUDIO
    TITLE "3:cjc153_0334"
    INDEX 01 02:02:03
  TRACK 163 AUDIO
    TITLE "0:"
    INDEX 01 02:03:26
  TRACK 164 AUDIO
    TITLE "2:cjc153_0335"
    INDEX 01 02:03:63
  TRACK 165 AUDIO
    TITLE "0:"
    INDEX 01 02:05:11
  TRACK 166 AUDIO
    TITLE "3:cjc153_0336"
    INDEX 01 02:05:38
  TRACK 167 AUDIO
    TITLE "0:"
    INDEX 01 02:06:59
